<?xml version="1.0" encoding="utf-8"?>
<!-- Generator: Adobe Illustrator 16.0.3, SVG Export Plug-In . SVG Version: 6.00 Build 0)  -->
<!DOCTYPE svg PUBLIC "-//W3C//DTD SVG 1.1//EN" "http://www.w3.org/Graphics/SVG/1.1/DTD/svg11.dtd">
<svg version="1.1"
	 id="svg979" xmlns:inkscape="http://www.inkscape.org/namespaces/inkscape" xmlns:rdf="http://www.w3.org/1999/02/22-rdf-syntax-ns#" xmlns:sodipodi="http://sodipodi.sourceforge.net/DTD/sodipodi-0.dtd" xmlns:dc="http://purl.org/dc/elements/1.1/" xmlns:cc="http://creativecommons.org/ns#" xmlns:svg="http://www.w3.org/2000/svg" inkscape:export-filename="E:\TR Design Studio Creative\Project Design\TR Creative Design\Icon Design\Project Hiring\Icon Icons\005 - Crime And Security\Send\3 - Flat\25 - Identification.png" inkscape:version="0.92.4 (5da689c313, 2019-01-14)" sodipodi:docname="25 - Identification.svg" inkscape:export-xdpi="768" inkscape:export-ydpi="768"
	 xmlns="http://www.w3.org/2000/svg" xmlns:xlink="http://www.w3.org/1999/xlink" x="0px" y="0px" width="48px" height="48px"
	 viewBox="0 0 48 48" enable-background="new 0 0 48 48" xml:space="preserve">
<sodipodi:namedview  id="base" units="pt" showguides="false" inkscape:cy="32" borderopacity="1.0" showgrid="false" pagecolor="#ffffff" inkscape:zoom="8.078125" inkscape:cx="32" bordercolor="#666666" inkscape:window-maximized="1" inkscape:document-rotation="0" inkscape:pageopacity="0.0" inkscape:pageshadow="2" inkscape:document-units="pt" inkscape:current-layer="layer1" inkscape:window-width="1366" inkscape:window-height="716" inkscape:window-x="-8" inkscape:window-y="-8" inkscape:snap-global="true" inkscape:snap-bbox="true" inkscape:bbox-nodes="true" inkscape:snap-nodes="false">
	<inkscape:grid  id="grid1526" type="xygrid"></inkscape:grid>
	<sodipodi:guide  id="guide1528" inkscape:locked="false" orientation="56.666615,0" position="0.97013909,15.963209">
		</sodipodi:guide>
	<sodipodi:guide  id="guide1530" inkscape:locked="false" orientation="0,56.666667" position="0.97013909,0.97016731">
		</sodipodi:guide>
	<sodipodi:guide  id="guide1532" inkscape:locked="false" orientation="-56.666615,0" position="15.963195,0.97016731">
		</sodipodi:guide>
	<sodipodi:guide  id="guide1534" inkscape:locked="false" orientation="0,-56.666667" position="15.963195,15.963209">
		</sodipodi:guide>
</sodipodi:namedview>
<path fill="#C00065" d="M2.751,7.832H45.25V40.17h-6.605h-0.687c-5.925,0-7.519-3.053-7.861-5.838v-1.223V17.856l7.861,3.138V31.02
	v1.047c0.343,2.352,2.052,3.488,3.989,3.574h0.684V9.576H5.03v26.237h10.598l0.568-0.088c2.508-0.173,3.647-1.481,3.875-3.136
	v-0.786V21.602v-0.523c-0.684-1.567-1.253-2.525-3.304-3.224L16.31,17.68v16.476H8.562V11.754H9.36
	c9.458,0.699,16.749,4.533,17.661,9.587l0.228,1.306v12.118v1.046c-0.569,2.528-3.305,4.269-7.406,4.358h-1.596H2.751V7.832
	L2.751,7.832z"/>
</svg>
